<svg xmlns="http://www.w3.org/2000/svg" xmlns:xlink="http://www.w3.org/1999/xlink" viewBox="0 0 32 32"><defs><linearGradient id="a" x1="50%" x2="50%" y1="0%" y2="100%"><stop offset="13.574%" stop-color="#E8C9FF"/><stop offset="100%" stop-color="#BD7AFF"/></linearGradient><linearGradient id="b" x1="50%" x2="50%" y1="3.146%" y2="100%"><stop offset="0%" stop-color="#FFF"/><stop offset="100%" stop-color="#CCE7FF"/></linearGradient><linearGradient id="d" x1="50%" x2="50%" y1="16.47%" y2="85.711%"><stop offset="0%" stop-color="#FF3445"/><stop offset="100%" stop-color="#DE1936"/></linearGradient><linearGradient id="e" x1="50%" x2="50%" y1="0%" y2="100%"><stop offset="0%" stop-color="#A387B3"/><stop offset="68.122%" stop-color="#6A4F7C"/></linearGradient><path id="c" d="M1.374 1.096c-.064-.095-.159-.126-.254-.063-.095.032-.158.158-.095.253L4.35 9.294c.032.032.032.095.063.127A.873.873 0 1 0 5.9 8.503L1.374 1.096Z"/></defs><g fill="none"><path fill="url(#a)" d="M12.012 24.012c-6.622 0-12-5.377-12-12 0-6.622 5.378-12 12-12 6.623 0 12 5.378 12 12 0 6.623-5.377 12-12 12Z" transform="translate(4 4)"/><path fill="url(#b)" d="M21.5 12.547c0-.174.025-.373.025-.547 0-5.248-4.252-9.525-9.525-9.525-5.248 0-9.525 4.252-9.525 9.525 0 .174 0 .373.024.547h19.002Z" transform="translate(4 4)"/><g transform="translate(10.897 7.978)"><g transform="rotate(-5 3.515 5.418)"><use xlink:href="#c" fill="#FF7058"/><use xlink:href="#c" fill="url(#d)"/></g><circle cx="5.267" cy="8.725" r="2.184" fill="url(#e)"/></g><path fill="#5C546A" d="M16 8.663a.33.33 0 0 1-.323-.323v-.672A.33.33 0 0 1 16 7.345a.33.33 0 0 1 .323.323v.672a.33.33 0 0 1-.323.323Zm5.198 2.139a.315.315 0 0 1 0-.448l.472-.472a.315.315 0 0 1 .448 0 .315.315 0 0 1 0 .448l-.472.472c-.15.124-.349.124-.448 0ZM9.907 9.907a.315.315 0 0 1 .447 0l.473.472a.315.315 0 0 1 0 .448.315.315 0 0 1-.448 0l-.472-.473a.315.315 0 0 1 0-.447Zm3.283-.697a.285.285 0 0 1-.398-.174l-.249-.621a.285.285 0 0 1 .174-.398c.15-.075.348 0 .398.174l.249.621c.074.15 0 .349-.174.398Zm9.6 3.98a.285.285 0 0 1 .174-.398l.621-.249c.15-.075.349 0 .398.174.075.15 0 .348-.174.398l-.621.249a.285.285 0 0 1-.398-.174Zm-3.98-3.98a.336.336 0 0 1-.174-.398l.249-.621a.336.336 0 0 1 .398-.174c.15.074.224.248.174.398l-.249.621a.285.285 0 0 1-.398.174ZM8.017 12.692a.336.336 0 0 1 .398-.174l.621.249c.15.074.224.249.174.398a.336.336 0 0 1-.398.174l-.621-.249c-.15-.05-.224-.224-.174-.398Z"/><g fill="#6A4F7C" transform="translate(4.684 4.684)"><circle cx="11.316" cy=".647" r="1"/><circle cx="11.316" cy="21.985" r="1"/><circle cx="21.985" cy="11.316" r="1"/><circle cx=".647" cy="11.316" r="1"/></g></g></svg>
